# xmcd
#
# Track frame offsets: 
#        150
#        25730
#        46074
#        74959
#        93932
#        120457
#        142955
#        166457
#        190615
#        216661
#
# Disc length: 3233 seconds
#
# Revision: 0
# Processed by: cddbd v1.5.2PL0 Copyright (c) Steve Scherf et al.
# Submitted via: ExactAudioCopy v1.0b3
#
DISCID=8d0c9f0a
DTITLE=Truong Vu - Gia Biet Sai Gon
DYEAR=1998
DGENRE=
TTITLE0=Gia biet Sai Gon
TTITLE1=Ngo y
TTITLE2=Dem hoa chau
TTITLE3=Ke o mien xa
TTITLE4=Mai anh di roi
TTITLE5=La thu tien tuyen (Co lang gieng)
TTITLE6=Sau nhung lan goi moi
TTITLE7=Ba thang quan truong
TTITLE8=Chuyen mot chiec cau da gay
TTITLE9=Sau ngay hanh quan
EXTD=
EXTT0=
EXTT1=
EXTT2=
EXTT3=
EXTT4=
EXTT5=
EXTT6=
EXTT7=
EXTT8=
EXTT9=
PLAYORDER=
